<mxfile host="65bd71144e">
    <diagram id="gxNL4BaOK6r6cRNY9DYs" name="Page-1">
        <mxGraphModel dx="1429" dy="667" grid="1" gridSize="10" guides="1" tooltips="1" connect="1" arrows="1" fold="1" page="1" pageScale="1" pageWidth="850" pageHeight="1100" math="0" shadow="0">
            <root>
                <mxCell id="0"/>
                <mxCell id="1" parent="0"/>
                <mxCell id="2" value="" style="sketch=0;points=[[0,0,0],[0.25,0,0],[0.5,0,0],[0.75,0,0],[1,0,0],[0,1,0],[0.25,1,0],[0.5,1,0],[0.75,1,0],[1,1,0],[0,0.25,0],[0,0.5,0],[0,0.75,0],[1,0.25,0],[1,0.5,0],[1,0.75,0]];outlineConnect=0;fontColor=#232F3E;gradientColor=#4D72F3;gradientDirection=north;fillColor=#3334B9;strokeColor=#ffffff;dashed=0;verticalLabelPosition=bottom;verticalAlign=top;align=center;html=1;fontSize=12;fontStyle=0;aspect=fixed;shape=mxgraph.aws4.resourceIcon;resIcon=mxgraph.aws4.dynamodb;" vertex="1" parent="1">
                    <mxGeometry x="400" y="680" width="78" height="78" as="geometry"/>
                </mxCell>
                <mxCell id="3" value="" style="sketch=0;points=[[0,0,0],[0.25,0,0],[0.5,0,0],[0.75,0,0],[1,0,0],[0,1,0],[0.25,1,0],[0.5,1,0],[0.75,1,0],[1,1,0],[0,0.25,0],[0,0.5,0],[0,0.75,0],[1,0.25,0],[1,0.5,0],[1,0.75,0]];outlineConnect=0;fontColor=#232F3E;gradientColor=#F78E04;gradientDirection=north;fillColor=#D05C17;strokeColor=#ffffff;dashed=0;verticalLabelPosition=bottom;verticalAlign=top;align=center;html=1;fontSize=12;fontStyle=0;aspect=fixed;shape=mxgraph.aws4.resourceIcon;resIcon=mxgraph.aws4.lambda;" vertex="1" parent="1">
                    <mxGeometry x="400" y="520" width="78" height="78" as="geometry"/>
                </mxCell>
                <mxCell id="5" value="" style="sketch=0;points=[[0,0,0],[0.25,0,0],[0.5,0,0],[0.75,0,0],[1,0,0],[0,1,0],[0.25,1,0],[0.5,1,0],[0.75,1,0],[1,1,0],[0,0.25,0],[0,0.5,0],[0,0.75,0],[1,0.25,0],[1,0.5,0],[1,0.75,0]];outlineConnect=0;fontColor=#232F3E;gradientColor=#945DF2;gradientDirection=north;fillColor=#5A30B5;strokeColor=#ffffff;dashed=0;verticalLabelPosition=bottom;verticalAlign=top;align=center;html=1;fontSize=12;fontStyle=0;aspect=fixed;shape=mxgraph.aws4.resourceIcon;resIcon=mxgraph.aws4.api_gateway;" vertex="1" parent="1">
                    <mxGeometry x="240" y="520" width="78" height="78" as="geometry"/>
                </mxCell>
                <mxCell id="6" value="" style="shape=actor;whiteSpace=wrap;html=1;" vertex="1" parent="1">
                    <mxGeometry x="50" y="523.5" width="60" height="71" as="geometry"/>
                </mxCell>
                <mxCell id="8" value="" style="shape=image;verticalLabelPosition=bottom;labelBackgroundColor=#ffffff;verticalAlign=top;aspect=fixed;imageAspect=0;image=data:image/png,iVBORw0KGgoAAAANSUhEUgAAAOAAAADgCAMAAAAt85rTAAAA7VBMVEX///8giP95uP////0Mg/8Aff8AgP8Whf/6/f+nzf+SwP8fiv8Af//y+P9jqf8NhP9ztf/Q5f9Hmv/Y6P96uf/t9f////psrP/B3f+gyP8rkP+81PFCkfje6/6GvP8yk//19vVYov+Nw/+vye5rp/R/p+CuyvjZ4uqIuP+hwOgzjvpCk/ZjnO2Zwv9ypvOav/Xo6+3P3eqz1f/S3OuuwdbG4f/L09mgvNlto+lXoPjU4PLt7+3i7/6y1P+OuO1bn/9jm99Gjui/z+Opt8OLs+J8qenb39+/yta2zOhosf/E1+6ZuNuOqswyiu/J0NQLDlj9AAAU3ElEQVR4nO1da3ujthI2gbWMMQZfiDGJuTg3b27OuvVuLnbcpt00Ts/p//85BxKjGwIEjhJynr6f2g2M9SJpNBrNjGq1XMi+blkj1bzpShG8YN3sWJbuy/mvfgb48+Ojcw/UFQCkVwCg1A0vuJ7a1kc3bmv4D+qlY0BqOEKa0uDi4ORT9+NydSqxyCGS2r6rf3Qry+L2p1TPYreBIv329Bk5+kNNyWf32o+tweKzDVR/b8JL74XiSr376CYXQmPgFKAXMdS6n2iYNg6AweAADEOLAEKtmpybQLk++eiG80G23ETrFcn7/fxy0lQjNCeX5zddLaGAlOD5U8xE+yZBT7uwOydX0HKR/auTjr0MDIqi8V/1EzB81MjhadSVnVGD9aRuey2F4Aic+Xs3tzAePLLJp+a33fSnv40DwhAAzr3/bk0thRnBT/Eu86aVPlwRFFv3Gd/j40H0H5CGPT/3FXkxdIgls5n/zofhkeDXtTlfezaJaXtc1T6UbQ3jZ5gF2vmAv1mfVlSXWjeoI4B2WOjd2T5iCIJqrvgNbH0H3Zlf6GV5tMKG6U0lzbYDXNs/F379pFtH2nfgv337tkUDG2NOqR5oYvNw+NbN2xp+Gw4x0C3efy8iTPSJvE7VFM0e2h9pM+pv+uyiObTzlarVhX2oTJjW3cfBn6D14dAn/vRgdsMdkuSspj7zVQzPLSjFWQhqaUkMoTECTOIP8vjLZtMAFOmgkTPwVNiFRrdSy/2thiYg0bDGvYTD3MseeY1D+KFa5SayIPxE1iRhn8kHGkFQcZqZi7jcg9PQWFepCxEDUr/rQcI3cWpnDlMbKiuH15R9ByzhGr3fI/4wSrrWgKTqWRSh4Q2qo0j9FTx1uPSJv5gM55MEVtMMYd+gJtWy+/od8XAKxx+lGTQGv8i/5qZv8+U2nIVHvuCG80KNW26Y1Df/Av9COV9O022xEXwoqIjN7V/Gja9/o/4UE9Tup11S3SjdHynN93+DA34kvO1cmEPFp9ADDxJUQ4VaJxgCYFrMOSZPY82kNN+h9fmQj2NNouzQf8MI1hb3p2QngjbbPrXjmQu8SmgZ/yhut5YYUjjBkOKK9GYDzWUJ1AfxF2tdiW48D/TzTauVi8TCRRKs7aqkG1RStHvGKbYad6Hyl/DWc8Dy4uYmTQ+KYPg1mvvk2l8POj79Ftx6GX8LbjsXrLhPvE7ibwmCNb/XJhmC0590Jz7uxwT7ohvPg1GsHX9P2tFJguEHGbRoZUMxvDvbPAAGgtvOBXXTI+A8qRJYBGvyP4fk+aBRJw0gOTbRwUpw27lgxq2h7NAITIKhsrk4I9VpQPahG3+z/SoE0txs2mpMkqtWCsGaPHJJdUoeSCzjacqY1u+PbjzQGHZHGsFw7/4UYDsNQM7fXjytK7EnlFJJZBEMx+mBgzqRPPlcxFsmbSmq1QVQlmBokwWoC+0C770zyhPctabQjJ0VeO+dUZ6g/M8N3Gj9HxKULReFWWjEELVaVSIYm6KgkBatWcdnmBrdv8X/Vi0tGpRYB0NFOcCdGJQVNKsUwXVxS6YmH6xIe/SC+DjwIMCrgtOiWdgW9S2H3Pkq1HnGoFK2aGcznsAN326i1jkifRdAapOfxo8dVKAtuO1csDa6AnR59oO1u2GX2hDuq5RJjfaDZq0CgDt6jWNHX+sFGjn76uuEJx+66ZSx6MbzAB6w1JOGI0VQ1m2HdOYDZ5D0rC1jn4zxh/DWc8C/hioh4cqlCO5RPifguKxYNhiNUH8U3noOIEetkRijOEF50aS7L9hjCRzBJSThSP4Y2LDBHv0nnKB6SrCTDGXKdG0jR3I1dEzkRYq/eCv1bGL46w3luXfMlLNe/RCeTdyyn3h3XMAhRWs9SNCjdKeSHopoxToUdKvgkYkAD+ITB14tiQ1wne5sGcIj3uuKHJ/VTvZhy4fkrKLOzDYNV4xeemrdHVRE9eNKnL2EkGM3X7hSkPE7M0b6C1iNs85U/oSygurEAumo+eTJrbVP0zOcSVa75REMHE1EhH0k0KEsGUjZuKe6EAS2nyVoFMAnB5UJsgjxBLUJtfMZdfG1HbRW2Rs8ZDRI9Sp4KyB0uBRKxgPxl19QJC+Qbv7JURsdLGbRF9fcEligHbo2I1hYAw8YIArFO2vmDTofi9qvVAeGY0tF4Xj75DDUO7N11wt27FGu1kc5h+DcF9XUkrhDSx5YUUaYrFuWlRdJGfbfBYob0g6qsgZC6EhfGt1SEpZIAqhezHatdo3aVy+RnuMv0QQEXi//hXfHCXYeBszCdvIF5idtzSs3QCM8/xezPAtG3vsTLG5POxDUwi0hq9iBH2ip+WoFvtnxcIvnz0r2Xwh5judeg0POiSSPpg6+66hyaYR7fAOYsaklMArw7gNeVba5LPhEkD1wzG+5o+3uz33ynWoXRdht4q2VjFZ7lFE2JrQAhlSorFedTSAb/jEVUSj9NrVTJtXo+JByJEouO4a0StidBmSbgaIN1L3HO7zlsv84XzZXdCK99meF9QuEfHJDOyoMzdk/C9xlLxp/Vm82HHT3HY2u9wBa1TNA2dAHjCo5AChKvfXly5dWHat+hD/gpVQJCGfqotMMvOhl0F0PO5a1dTmoLWX6Q69IsZUXetqwx/6F+fSwK8FvAgyl7gRHx9vFeG0vszOh1UcOzpnmmXxyPHGS/R2OBm9i35XrxreRKTcW3RYvRVDXVPYA6Z9qKUKA4azK9eKbydx9Xjssv29CbKhkfZYA62t20SRQ956Ket7eVuauPdHolYAWCOrBjC2x082dx8CYFFtX3lxmwz4KgJLK0QDd62O26eLbXZ4Rru0UKCogQqbs66MmXTbmpfyRYtQV89ZKS7VTuYZ3iFP+7y1C5ivLu4c28ipqjuOt2ub4j8f081v9kP7U4SeRNvWg6D9w+kdEyERowiOV66Vt58QvyQuXmCqhdjs7v2wOVVW9mFyen1FaUBtytEaETAwNRPA/+U8vSFsPeNPO7dXmB2X/6tY2SVWhcSRxiZDJJshRpWSIjxijFdAmjtw4IGt6gfw5I0ImBkRQ0vKelad4GKIzYO6Zdx/amL0LTnP0ngiZBDCC9VneAQxeVihIL9PleugxaSf7e4uQSQAjCFbZVQx97Ni73s/wX/h7WEStlpmyLUImCYxg3smtioWbrDN/Qf4Fy/MysnypImSSwAka7ayut9BgMo5yA52wGi+JICSxMingBMM1Jv0jNlBVE2mQH+77yxkaeqkVaETITPwGTjAjn0WG+buSMcgsmLB5fg92TurcFiEzAZIg8NLea/xEUTJcWtpHlbLSAthFyEz+SJO0I5yU2swL6PsHWapI9tH+GBVOmLAfFiEzAYqgJN3cMhnCVB+QVXlsND06Oo4d/A+xhgQpuXgiZCaQIKjcMBUN3M9kVMeTeysFGEbbf/3fXTjDFHbolwiZ+QQlacWoEnAFv1w3/WTKeg3oUJqbnz6AZi6zuIcImVwEQX1i0S//Cp9KPaOXO3GKc5xy2IhrutCJsm8jk89eYxCMKt7eU6vSOH7KYcY6R0A1lOKMU7QMOCyCImRyEoxOEJsH3330GIyX2k+JRpcPUJFHmFJ7G6/MddYYFCEziyDpHQBAO+0OhvPRCxYw46WbMrU7WOAwNBeuYK0JVprFakuZfAEtkCAwTYLhC0ml3noFXH7iiD7Ztyzkl5It7AAZBLFwVM9G+ZLEljKNRIWVHIKDq6ZGU0wA5oP2fp55XTMeJR0sZQ0AGPQnT3icgSVlIs6cBNu6rHp5DOOBb3UVEHbw6iUkRT7A3gPOMZJ+kfvFtpDpFCZYa+jrVnaTvmw+46awzGs5T3yuAGIBVtm1sd5IZnGC4a/8GvA0Bga7A0mVn4i5QkQuFiFYXGYZguFAcZnXpJCN+Q5zZYDTxLwlQCHXzyIEi8ssR7Cmz356qYcWLYv82iTCuUJq/CEHv9IyQUmCkba2nZbCPM2uv1pMMvOsBADaAG5yadFyMgFfaCiD4Asen8aDledoG8S/F6/Yd/tJ9sChKwKidVDSkthSJmeWbRrBCPJovlRfAVPyg83vPZwl2tJd0hYJtDrAQE1iS5mFLZlMlxrcSe9vcmPkB7KyjgRWST8QtBtbLLtRhMzSBGExy9Pvm3+RVWKOAiPxrfFcBNZZ6rYyC+4msgn+iE1yLGv7ES8Sn5grUXunUB+wGiNCZmmC3+Hue4AeQ3MGaIxvXevF1hY4ZMkWIbM0wV10BoWOaOCcAQ7r3AaW8JIUps9FhMzSBGsoT+/aRz/34EUDBtwwM15RRdmUC2NEyEyAl6CFli1ce/mBozmXbG8xrPSY5sMUITMBXoI6LBEEAh//Q2fJ/pRYmLh2zHxCiMwEeAnKU3jQVedaYReoznXaiawImQnwEqyN0FGlw1H+v9GPn5aUfpo6ECEz8RIvwVBBQ/GtXA22u0Ynmxln/yJkUuAnKGNJsdo083vLoyP4qKR8fV+ZFPgJIld79L0zT69Qqdwo4S3L4hAhk0QBgrWv2IbNyQg4Ohmg51jFekTLJFCEYAP3nNYDdk0BWZ/V8UbnHFSKkEn+QAGC8qKNtQYo17PkK73pDb4hMNQc5ShCJoEiBMPNGFHUKooI/n6FPrn8uDfsElFXCkd4mAiZpQnKFun8BtrpfjCeR1O+NzO7+w5Vy5onXU2EzNIEQ/uRKqoeDatN0kUiRhrc8KU7iZBZmqB826Z/MwUADDnT1UTILE0wNAiZd3Ek2+JlXc7xDjJLE5QbX+v5EfL1bpEbtkTILE0wxNV93jGUx064eGeZEUoRjC4pyrgt3NAmJZJhRcislSUYhefcsDNVgOH8tMsVnBEhszTBKA3OVeoKFvgPXvL0nOmCP4v9HWSWJhhh9/sPs919PcFwPG81GP+69UUbby1zK4KvEkb2TFXVWecNk5jfUOb2BCuOfwl+dvxL8LPjX4KfHf8SzJcgYqG3ep35fN5bbF/BpnKmmvz4sFTHrtsP4brjsWr/xZsDwkSljO2ars/MCDsI0f+6e1vUyIjvHyhYt1fE1sbam/ZxbhhL92uvbM1PeIOEVoCgkA3vYsxm90qxz/AIc8GG2Rn8paWFuCwOsvhFcOdFZb4A1ef/wfeCGKfTk5lDL+rFcZmyWR0YMnbE94IIF5+1zGX3OhVTMyzScRIfbPCFJwpx/J6oXPwi2IVrZ92hq2x59FSqm71e3s2uu8m+Ms31em0yxu2wqP6SJzB2SM39OEIOX/Q+ya3vNof2KHpz0VmGSz5FvbA2RXfPnuWaDCKOuk5IBn11Tsq8tUn1avKfz7+iAYNP0pOkNj8m4gDUwuefaX7tJCfKYm9KMCy6XPTi+C+QEx4l5Agb15/hOsCW2ejgs9EtWqUWhuOAbM0uImDgCePn7mXIVLGZOi64cUHBKkZW9VghYSRYx5iZHdPAhrI5LqZontH3PswoWCkiEOgAEewz4nvxR60fqA/NpxxKJPCCHell0EWEXS3GqM3Z/ELIS+xr5DxLtx1FSmtpmlRE4JyFFgA3pbwgIXOGPkdeaRgSPiquyorkjyAk9HEP8jO5jEx9iBRSkaI54adEraEL4sey04JX08ATEAuXN3PMJ3OEjIKCZvcQpbMBj6WiUsKPs5AbfoxsNJNX76txn5sFr8ndRV0YbgMOktYEM4A8G7kB5DM4Qr/yyjyBr/QL3vCoY4uzJDXpkh3MFIAc5KUAyKix3JtjeQi78KngvmmBX42p/U4t5MwkjjzkJHE8wraq/A6lBZyFBV56gfyAZ7cBZ/CErwWsNJx8kdlpOA8xwT5nCsSLTKh5C1ozIf4hK8soBrZZSCZS8SA7OQuu224RmagLi3vZXOoWO9Bezk+uXuz7RCocF1AqHMvihhqxWUQmNH64NS+CfExVCgCS8/v55WTISGZ8+a35nPoRvzfvYMWZUDIjUY9QtkajUa8Du2JYRF1c3ccEy9wEfBskHIIAKFIyHTXE48zt990ZVmhDPlHDfxojQw6lo2JVC/z52I2AFsFCLfXjXYVZ6vag3XZ2uYc61AdX9y8jzLxH48tyX/5pjcxmmFCM6qD5U9qRZBZb0eDqWe6eVfkgyGLYguqwE7cPTa94UiH9BlPCv8CHev0dmmAxbWHDF0sRjC6ZyDh2gA1txDrQXML1CKp9yBkm9SOCs4QncF2sffP+lgRl/SD9ZAU2VI+7y1Rh/v06JgjHcZJgQ/1wghFmq0RBf7on7JggUhHxLyOnEIPgx/fgC/yni3ayhDBeZyjeubhIRXTMTZ/68b/A0iiwLIPMmIPFFjQ4B91tCIaw7KNzT6LuL4DFbaLtdcjH3MGKjb8OP9OFN8ai4jbo3ENfJrRoocLxyHGx/W3Vvm5Zz+PAY5UnqskNfbxej3X8vLrR6a9NFR2PoPJE2DBsLF6Opc01JFhoa4fWwYI7wmzkFphiIqVolbywQtSg/2H8fpZMKnJLhDGRXSIM6lO3iMxtbNEMcBR5SyKnyJsNCRa4lxkpqf6bBi5xlOlLIqf0319Q2xQYbGgdLb4fzAJXoUUaOYUW7yDBAmcNz/Clv1kyy4OnVCaF3FKZcL9k7nHLRHuQN74okK/YKYHcYqfI7zvl9a98Q67wN77Ii7NcLY7ccrUWcuPyrvVwaXnbVbAmpuCw/xW57vlkosOJwoegeRBShhrZpSbPpY/yLery8VYhiCwIKSSOeqSv5oeHnIzh46aAqwJFlG3HI2R+5DYZ20puu5NgyxdQeH+OnWkus2WeYPzMYhe1ckLIdQxYDIw5y5jb/u2Y+1uUhojLLxZ4GNAwfW7P8OcE8RNzJcoe1vAdV2VWot/9NiSe2jowPBUiLqCx8babZiJEUW48U4HOgvovgogrhKwh0XzT3VssMJmLHuWH6/NaUmUg5GIpi3K0me74Xp3Z8/ncXqr3Y6r7+jaHzC0g5GqwrwlX4o650+/3dxhhzjOx/GpiLmKbJ0Ni2XAFzr8YQq7n6+WF3L8Oz6U4/YlDxAWLmUkT8bAVtf4lwHGdJSMSJRv6U0rWC6TnPr8XvwgiLjkNrZU0jqFmfeeruMVcU7u3ZHaj6S57JWVuBREXDY+e1PEOSicI/6s//psOBXg3yLpl9Ybtl12GE+wMe5a+/VXRDV1f2CHLEO54aS/0VJn/A+oeCsF008kWAAAAAElFTkSuQmCC;" vertex="1" parent="1">
                    <mxGeometry x="727.5" y="524" width="75" height="75" as="geometry"/>
                </mxCell>
                <mxCell id="9" value="" style="shape=mxgraph.cisco.computers_and_peripherals.laptop;html=1;pointerEvents=1;dashed=0;fillColor=#036897;strokeColor=#ffffff;strokeWidth=2;verticalLabelPosition=bottom;verticalAlign=top;align=center;outlineConnect=0;" vertex="1" parent="1">
                    <mxGeometry x="862.5" y="684" width="90" height="70" as="geometry"/>
                </mxCell>
                <mxCell id="10" value="" style="dashed=0;outlineConnect=0;html=1;align=center;labelPosition=center;verticalLabelPosition=bottom;verticalAlign=top;shape=mxgraph.weblogos.github" vertex="1" parent="1">
                    <mxGeometry x="870" y="525" width="75" height="75" as="geometry"/>
                </mxCell>
                <mxCell id="11" value="" style="rounded=0;whiteSpace=wrap;html=1;fillColor=none;" vertex="1" parent="1">
                    <mxGeometry x="210" y="450" width="320" height="339" as="geometry"/>
                </mxCell>
                <mxCell id="12" value="&lt;font style=&quot;font-size: 20px&quot;&gt;AWS&lt;/font&gt;" style="text;html=1;align=center;verticalAlign=middle;resizable=0;points=[];autosize=1;strokeColor=none;fillColor=none;" vertex="1" parent="1">
                    <mxGeometry x="210" y="450" width="60" height="20" as="geometry"/>
                </mxCell>
                <mxCell id="13" value="" style="shape=image;verticalLabelPosition=bottom;labelBackgroundColor=#ffffff;verticalAlign=top;aspect=fixed;imageAspect=0;image=data:image/jpeg,/9j/4AAQSkZJRgABAQAAAQABAAD/2wCEAAkGBw0NDQ4NDQ0ODQ4PDw4PDg0NDg8PDg0OFRUWFxURFRUYHSggGB4lGxUVIjEhJSkrLi86Fx8zODMuNygtLjcBCgoKDg0OGhAQGy0lICUtLS0tLSstLS0wLSstLS0tLSstKy0tLS0tKystLS0tKy0uLS0tLS0rKy0tLS0tLSstLf/AABEIAOEA4QMBIgACEQEDEQH/xAAbAAACAwEBAQAAAAAAAAAAAAABAgAGBwUDBP/EAEQQAAEDAgEJAwgIBQMFAQAAAAEAAgMEEQUGBxITITFBYXEiMlEUNFJ0gZGhsiM1QmJyc4KzQ5KxwfAzU9ElY6LC4RX/xAAaAQACAwEBAAAAAAAAAAAAAAAAAQIDBAUG/8QANxEAAgECAwQIBAUEAwAAAAAAAAECAxEEITESQVFhBRMycYGRsfA0ocHRFSIjM1IUcoLhJELx/9oADAMBAAIRAxEAPwDgKAoIr25zxky8wmQIYFEIKAoAZEJQmQIIRShEFMQ4TBeaYIEMiEAoECGRBSooAcIpLp0CCEUqZABTJAimIcFRAIhAhkwK80yBDqIBFAEUQUQIr4KZIiFE1jqBBFAhky8wUyBDAohBQIAdQJQmQIIKKUIhMQ4TBeaKBDooBQIEMiEoRQB6IrzCdAggohBEJgFMEgRQIcFRAIgoEMEwK80yBDKIKIAryKVEKJqGCZIiEAOoEEUCGTLzCZAhgiP85ro5P4HUYhNqoAAG2Mkrr6uNvPxPgOPxWpYfguGYNFrpCwPHeqZ9r3O8GDh0aseJxsKL2dZPcveXLfyJwpuWe4znDMksRqQHMpnsYbWfP9CCOjtvwXciza1hHaqKdh8AJH/8LoYnnLYCW0lM59r9uc6APMNFz77Lgz5wMTebtfDGPBkLT8xKpUsfUzSjHvz+/oStSXFn3S5tqxo7E9O/l24/7FcHEsmq+luZaZ+gN8kQ1rBzJbuHM2XRps4OJMN3uhlHg6EN+LSFZMIzjwSEMq4nQE7NbGdZF7R3h8UtvHU85RU1yyfll6PuC1J6NozUFMFq+MZK0WJM19O5kcjxds8NjHJ+Jo2HrvWZYrhk9HMYZ2aDrXBBux7fSaeIWnDYyniMo5PenqVzpOGp8oRQUC1lQyISooA9EV5hMECGBRCROEwCmCRFAhwVEEQgQyiF1EAV1MlRCgahgUUqITEMEyQIhADr7sFwyWtqI6aEdp52u4RsHeeeQH9gvgC1jNphDKajdWyWD6hulpHcynbctsfA7XX6eCy4zE9RSc9+i7yUIbUrHTq6mjwGga1ov9mNn8SomIuXE/Enh7gslxfFqitmM079J25rRcMY30WDgP6r6srMddiFW+a51TexAy+xsY49Xb/aBwXHUMFhOpW3POb1f0+/PkFSe1ktB1EFFtKx1AlTIEdbJ/H6jD5NOF12OP0kLr6t/wDwef8AVafI2jx2huDb0XbNbTTDgf8ALEFY0F3cksddQVTXEnUPsydl9mjwf1bv944rDjMJ1n6lPKa0a3+93lppZTqW/K9Dn4lQS0s0kEzdF7HEcnDg4ciNq8Fp2cTBBU07auBpfLEB/pguMsLrbgN9t46nxXAwnN7VTND6iRtM07dDR1ktuYuA349E6OPpSoqpNpbn38lrzyWVxSpSUrIqCK0STNpFbsVkodwL4mObfmBY/FVfHslaugGm9olh/wB6IHRb+Ib2/wBOaspY2hVlsxln4r1RGVKcVdo4iISorUVjhMvMFMECHCiRMEAMmSBFMQyiVRAivpkqigaxwolCYIEMEQkTBMR9NDTmaWKEb5ZGRj9Tg3+617OBVCjwowR9nWhlKwDZaO3aA/Q0j2rNMim6WLUIO7X3PsjeR8QFcc8Uh0aFnAuqHnqAwD5iuZilt4ujTeiu/X7FsMoSfgZuoEEV0ykZMvMFMgQwKIQUBQA6gKVFAjWc32Nxy0Iilka19L2DpuAOp+w7bwA2X+6uFlNl7M97oqF2qjaba/Ra6SXx0b3DRz39FQyAd4B6hMCsMejqKrSqvO+dmsl9+XD5ljrS2dk7MWU+JMdpCtmve/acHtPVrgQtByRyqbiLXU1QxrZwzaLDVzs3OsDx8RzWTL6sOrHU88U7DZ0UjXi3EA7W9CLj2qeJwNOtBpJJ7mlbPwsRhVcXe52ss8C8hqrRj6CUF8O86Fu8w9CdnIhcBarnBp21GGa8fwnRztP3T2T8HfBZSl0fXlWoKUtVk/D68QrQUZWQyIKUIraVHookBTBAhwoEEUwDdRLdRAjgBEJEwUDUFMlUQAwXbybyZqsSeWwNDI29+okB1bD4fePIfBeGTODSYjVx07DotJ0pX+hC0jSI57bDmQtYygxqlwKkihgiGmQW08A423yP42vvO8krDi8VKElSpK838ufvK2pOME83oLhOSmG4S1tTK9pkiu7yqpe1jWOsQS0d1uwkeKp+crKCmrXU7KV+tEOtL5ACGHS0QA0nfuvfduVUxXFqmtk1tVM6R3AHYxnJrRsaP82r47pUMFKNRVas3KXyWVu/07hSnlspWQwKZIiCugVjqBBdLBcEqq95ZSxF9tjnuOjEw/edw6C55JSkoq7dkK1z4F38n8k62vs5jNTD/vzNIY4eLBvf7NnNXrAchKOjaJqtzaiRnaJf2aeO3HRO/q74LwygzhQQ3iomid42a07IG/h4v9lhzXNlj51ZOGFjd8XovfPyZb1SSvMq2O5D1tGNNo8riG98DHB7esdybcwT7FWQVomAZxxsjr2WO7yiFvZ/Wzh1F+i7eLZK4fibPKIXNZI8dmopyCx/4mjY7+vNKONq0Hs4mP8AktPL7Z8g6tSzg/AyFELsY/kzWYeSZWB0V9k8d3RkcNLi09feVx10oTjOO1F3XIoaadmEFFKEQVMRqWAZY0DqWGCqfqntjbG8SsLonaItfStaxtxX1V2SWGVsesp9CMu7stIWmMnm0dk/BZKvrwzE6ikfrKeV0Tr3Nu67k5p2H2rmT6OcZOdCbi278vfmXKtfKSudHH8nKnD3DWjTiJs2dgOgT4H0TyPvK461jJzH4MWgfBMxutDLTQnuSMOzTby+I9xWf5V4I7D6kxi5ieNOB52ks4tPMHZ7vFWYXFSlJ0aytNeTXFevCxGpTSSlHQ5CN0qK3lJ6IrzCdAgoKKIAryKVFRNQ4KKREIEa3mhw0R0s1WR2ppNAHwijvs/mc5UDK3FXVtfUTk3bpmOIcGxM7LQOti79RWpZGDV4BE5uw6iok2ekS8rEozdrSd5AJ62XMwf58TWqPc7Lu9pFk+ykOCmSBEFdMqHCKRMmIteb3BIK+qeKgF0cUYk1YNg92kAA4+G/Ytaqg6lpiKOlbK6Nv0VMxzIgeQJ2BZxmf87qfV2/Ouxj2W82H4nJTvjE1OGwmws2WMuaCS07ndD71wcdTqVsU4Rz2UnZvLdfhm78TRTajC7KRlLjtfVyOjrS6PRPmoa6ONm3Zdp2nqbrigraSMKx2L+HK5o37GVUH/sB8CqLlFkDVUulJT3qoRc2Y36djebB3urfctuGxtL9qS2GtzyXvvz7yqdN9rUqS6GC4tVUcodSSOa9xF4wNJsh8Cz7X9V1Mnsi62ts8tNLB/uTMcHOH3YzYnqbBaFSYXhWCx615Yx1reUTkOmefRZx9jQp4nG0ofp22m/+qz8/try0FGnJ56czo4DVVNTTB1bSine4WMelpB7bd7R3tv6J2qh5yMApqTUz07NVrZHMexv+ncNLg4DhuOwL7jl8+prqanpY9XC+phY+SSxkkaXgEAbmi3U9F753PN6X1h37b1zcLTq0cTC62dq/5U93B6/dcmWzalB8jNFAlTL0BlCEUoRCYj7cJxB9JURVEZs5jw4j0mfaaeouFp+X1K2qw3Xs2mLQnYRxYRZw/ldf2BZKFr2GHXYA3S26VC8G/JhH9ly+kFsVKVVaqVvD3fzL6OalHkZIiEoKIXUMwyISooAZRBRAivohKiomsZFKEQgRtmbaYVGDNiJ7hnhdyBJI+Dgsbqad0Ej4XCzonujI5sJb/ZXLNRjjaaqfSyODY6rQ0CdwqG7B/MDb9LV9edPJpzJjiUDC6OWwqQ3+FIAAJCPAgAE8CB4rl0X1GLnTlpPNd/D1RY84X4GfqBBRdQqHCKQIoEaBme88qvV2/OubnM+t5vy4PkXSzPA+V1RsbCBgJ4A6e5czOaCMWmuCLxwEcxo8Fzo/Hz/t+xY/213lcpqiSJ7ZInujkb3XscWuHtC03IPLOoq5W0VSwSPLHFtQ2zXHRH22jZfmLdFlitmbH61i/Kn+VXY6jCdGTks0nZ8PHXwI021JWLtl5lZLhxjhgjaZZWF4lftbGAbbG8Ssqrq6epk1tRK+aQ/bedtvAAbAOQAVyzved0v5DvnVEUOjqMIUIySzerCq25NHVyZ+saH1qD5wr7nd83pPz3ftuVByWBOI0IAJPlUB2C+wPFyr7ndB8mpTY2FQbm2wXjfa6jiV/wAyj4jh2JGZBFBRdEpHUCVMmIN1sL2+SYDou2FlFo7fSc21ve5Z9kVgTq6qaSD5PC5r5ncHWNxH7bbeV+StedDFg2KOiYe1I4SSgcIm90e11v5SuVjX1tenQXG75L/y/mi6n+WLkZuEy80V1TOOEUFECGUQUQBXkyREKJrHRBSooEM0kEEEggggg2II3EHgVr+Q+WsVbGKOucwVFtAOktq6tvht2aVt7eO8cQMfBRWfE4WGIhsy8HwHGTizUMpc2V3GXDnNa3f5LJcAH/tv4D7pHtWeYlh1RSSmGpidDIBfRcWm7TezgQSCDZWDAc4GIUgDHvFXENzJ++0eDZBt9910cPwuTKWunrXu8mp2GKNzQdZJsaOwwkW53I+1uKz0516F/wCoacEu1v4Jcd+9eI2oy7OpSqaCSV4jijfLI7uxxtL3u6Af1Wh5N5s3HRlxF+g3f5NEe0fxyDd0HvVqc3C8n6bT0RC1x0Q7bJPO/fo6R2k7N25Z/lJnDq6y8dNpUkJ36JBnePBzx3ejfeqv6jEYrKgtmP8AJ/T/AF5oezGOpe8TyjwrBo/J4ms02jZS0obpA+LzuaT4u2nmvSlr8Jx2LVu1crwNLUy2bUQndpN4/qabLD78fEknmfFPFI5jg5ri1zTdrmktc0+II2hS/C4JXUntfy5++d+YutfgXvKLNzUU+lLRONTHv1RAE7B4Dg/4HqvizaNLcWja4FrhHOHNcC1zTo7iDtB5Ffdk5nInhtHXtdUsvbXMDRO0cxsD7ew9StDoGUVYYcRhayR2i4RztBa/ROwtPj7VTXr4ijTlTrq6aaUlxtv5+T7xxjFu8fIoGd7zyl/Id86+HJ3IKsq9GSe9JCdv0jTrnj7rD3ervcVqddR0ok8snYzThjIEzwXGKO9zYcOu9ULKLOUXB0eHN0QdnlMrQb842f3d7lHDYivOkqVCOmsnovfO75DnCKleT8CzshwrAotI6uJ7hbSdZ9TPbgOJ6DYF8+FZa4diGlBMBDpEtEdUGGOVvAX7tz6J+KyKpqZJnmWaR0sju895LnH/ADwXmtC6LhJN1JNye/3r4/Ih1zWiyNPyizcxvvLQOETt/k77mJ34Xb2dNo6LO6+gnpZDFURPheL9l4tpDxadzhzC7OTuWdbREMLvKIB/ClPd/A/e3ptHJaNh2JYdjkLo3R6ZaAZIZW2khJ3EOG7cbFp4JdbicL+6tuH8lqu//eT0uLZhPTJ8DGLq8YBm/nn0JaqRsMJs7QYQ+WRpFxt3N67V8+WeRn/57PKYJC+n02tLJNskZdu2/aF9njt4r5W5b1zKWKlhLYhGwR64DSlcButfYNlhuWidWpXpqWGaz1b3e/EioqLtNF+xXFqLBaYQwtbrA06qmae053pyHeBfe47TzWT19bLUzSTzO05JHaTj8AB4ACwAXhLK57i97nPe43c5xLnOPiSd6ClhcJGgm73k9W/QjObkEIpQiCthWOEwXmmCBDXUQuogCvIpUVE1jApkiIQIdEFKigQy1jMx5tWesM/aasmBWs5l/Nqz1hn7TVg6T+Gfh6kqfaR3IMrcPqp58PqNGORskkJjqADFOGm3Zcdhv6JsVwcpM2bHaUuHv1bt/k0p+iJ+4/e3objos+yq+sa31mb5iurk3lzW0FmOcaqAH/SmedJo8GPNy3objoqFgqlJKphpWuleL0fn9dOKJbaeUjhV9BPSyGKpifDIPsSCxPMEbHDmCQvfB8Gq65+rpYXSkd52xscfNzjsHTfyWw0GJ4Xj0JjMbZXMAc+CZoE0N9mk08No7zSvHG8p8PwZgpYY2mRjezSU4awMB2guNrNv7TyKf4hVf6apvrOG7v42+XMXVrW+R8eT2b2lpAJ617amRovous2mj52Pe6nZyC69FlbRz1jKClJlOi/SkYLQs0B3Wn7Xs2c1k+UWVdbiJtNJoRcKaIlsX6vTPX3BdHNd9axflT/KoVsFOVOVXESvJJ2S0Xvy7xxmrpRRpeN5V02H1MVPVaTGyxl4mALmMOlazgNoHNc3HMi6HEW6+mc2GR3aEsGi6GX8TRsPUWKrOeHzyl9Xd86quB4/V4e/SppS1pN3Quu6F/Vm6/MWKhh8FLqY1aMnGVvB+/IJTzaayPXHMnazD3WniIZezZ2dqJ/t4HkbFc+CF8j2xxsdI93dYxpc49AFrOT2W9HiAFPUsbBNJaPVSWfBOTs0Wkjj6J+K6MjMKwWN02riphI4tu1t5ZHbXatvEgAHYNgsrvxGrT/TqU3t7raP3yuu7Mj1SeaeRUsnM3EjtGXEHGNu/wAnjc0vPJ7xcDo33qz4hj+G4OwU8Ybpju00AGkD4vO5vU7TzVIyizgVVTpR0wNLCdmk1307x4lw7nQe9VFhu4E7SXXJO8m+8pxwdXEPaxLy3RWnvzfMW2o5Q8zYM5RvhLz4yQH/AMgshWvZyfqh346f5gsfUuiPh/8AJ+iFW7QwKKCgK6ZSOoEoTIEEIpQiCmIZRBRAivhFImCgaxkQlRTAYJkiIQIdazmW81rPWWfttWSrWMyzh5NWi4v5RGbcbGNoB+B9ywdJ/DS8PUlT7Rn+VX1jW+szfMVzFbcu8la6CqqKrVGWmlkkkEsXa1ekb2e3e3ru2b1UAVqoTjOmnF3yXoQkrM0PM155V+rs+dcrOf8AXFR+XT/IF1MzPnlX6uz51ys6P1xUfl0/yBZIfHy/t+sSb7HiVZW7Nd9bRflT/KqiP/ntWj5tclq2KpZXTx6mIRvDGybJZNMbw3e0dbdFdjZxhQltO107c2RgvzI8s8XnlL6u751QFq2czJmrrXw1NKwS6qNzHxAgSEE30m32HpvWVPY5ri1zS1zTZzXAtc0+BB2hQ6PnGWHik81ryCorSOpkuf8AqND63TfuNWg54vNqP1p37Miz3Jj6xoPW6b9xq0HPF5tR+sv/AGZFDEfF0vEUexIy4Feke8dQvILuZO5NVle5phitFcaVRJ2Ymi/A73HkL87LfKcYLak7IrtfJGk5yfqh346b5gseBWwZzSG4S4Ei+tp2jmdIbvcVj653RPw/i/oWV+0MmXmCmXTKRgUQgoEAOoEoRQIZRBRAWK8ilRUTUOEUgTBADIpQimIYL7MMxKopJRNTTPhkFtrDYOHouG5w5FfEiEmk1ZiNbyZznQy2ixFrYH7vKWXMD+bxvj+I5hfdlBkBQ17NfQmOlleNIPhAdTS323LWm230m/FYwu1k9lPW4a4GnlOrvd9O/tQv9n2TzFvaudUwDhLbw0tl8Nz988u4mp3VpF+zb4BV4fX1bKqEsBgaGSt7UUln/Zd7thseS+LKzJSsxLGZzCzQh0IAamUERDsC4HF55D3hWXJrOBQ1oDJXCkn4smcBG8/cfuPQ2PJfJlJnIpaYmKkAq5hveDanYebt7jyGzmFijUxf9Q5Kn+Zq3JaZ8N3GxK0NnXI+zB8lcMwePyid0bpGbTV1Wg0MO7sA7GezbzKruU2c0u0ocNZYbQamUbT+Bh3dXe5UPGMaq66TWVUzpXDut7scfJrBsH9ea+ELdS6PTl1ld7cvkvflyK3PdHIv+Tmcmog0Y65pqY92ubZs7OZG5/wPVXOpw/Ccdi1rTHI4DR18JDaiE79F3EfhcFh4X0UNbNTyCWnlfDINz4zY9DwI5G4Uq3R8W9uk9iXLTy+2XIFUaVnmi7syHrKDEKKRtqmnFXTkysbZ0bdY3a9nDZxFx0Vlzm4VU1sVFFTROkeKlzjawaxuqeNJxOwC5HvXKybzmA6MWJM0TsHlMTezfxkZw6tv0CsGM5e4fSsBZKKqR3djp3Nd7XO3NHx5LBVli+ug5QvJXs1o+eWlvDuJpQ2XmczJ3N1T04Etc5tS8bdVa1Ozrfv+2w5L1ygy/o6RupomsqZG9kaBDaaO2zvDvW8G+G8Kg5RZXVuIEtkk1UB3U8WyP9R3v9uzkuCFrhgJVZbeJltclovfLzZW6ijlE6mM43VV0msqZXPt3Yx2Yo/ws3Drv5rnpEQunGKirJWRU8x1AgimIZMvMJkCGCKCgQA6iW6iYivhRBEKBrCmCQIoEOEUgTBADIpQimIYJkiKBDohKigQwRSgohAhwiEiYIEFG6CiAGTJUQgQwKKVEJiGCZIEQgB1AgigQyiUJkCCogogCvpkiKiah7qIIhABRShFAhwUQkTAoEMilCKYDBMkRBQIdEFKigQwRSgooEOEQkTBAgpkqiAHCiUJggQwRCRMExDBMkRBQA6gQRQIKil1ECK8EQooomwYIhRRBEIRUUQIidRRAECIUUQIZRRRMQwTKKIBhCiiiCIUQoogBgiFFECCmCiiBBCgUUTAKIUUQIcIqKIERRRRAH//2Q==;" vertex="1" parent="1">
                    <mxGeometry x="600" y="522" width="77" height="77" as="geometry"/>
                </mxCell>
                <mxCell id="16" value="" style="edgeStyle=orthogonalEdgeStyle;html=1;endArrow=block;elbow=vertical;startArrow=classic;endFill=1;strokeColor=#545B64;rounded=0;entryX=0;entryY=0.5;entryDx=0;entryDy=0;entryPerimeter=0;exitX=0.9;exitY=0.5;exitDx=0;exitDy=0;exitPerimeter=0;strokeWidth=2;startFill=1;" edge="1" parent="1" source="6" target="5">
                    <mxGeometry width="100" relative="1" as="geometry">
                        <mxPoint x="110" y="568" as="sourcePoint"/>
                        <mxPoint x="210" y="560" as="targetPoint"/>
                    </mxGeometry>
                </mxCell>
                <mxCell id="17" value="" style="edgeStyle=orthogonalEdgeStyle;html=1;endArrow=open;elbow=vertical;startArrow=open;startFill=0;endFill=0;strokeColor=#545B64;rounded=0;exitX=1;exitY=0.5;exitDx=0;exitDy=0;exitPerimeter=0;entryX=0;entryY=0.5;entryDx=0;entryDy=0;entryPerimeter=0;strokeWidth=2;" edge="1" parent="1" source="5" target="3">
                    <mxGeometry width="100" relative="1" as="geometry">
                        <mxPoint x="480" y="559" as="sourcePoint"/>
                        <mxPoint x="350" y="600" as="targetPoint"/>
                    </mxGeometry>
                </mxCell>
                <mxCell id="18" value="" style="edgeStyle=orthogonalEdgeStyle;html=1;endArrow=open;elbow=vertical;startArrow=open;startFill=0;endFill=0;strokeColor=#545B64;rounded=0;exitX=0.507;exitY=1.068;exitDx=0;exitDy=0;exitPerimeter=0;entryX=0.5;entryY=0;entryDx=0;entryDy=0;entryPerimeter=0;strokeWidth=2;" edge="1" parent="1" source="26" target="2">
                    <mxGeometry width="100" relative="1" as="geometry">
                        <mxPoint x="470" y="640" as="sourcePoint"/>
                        <mxPoint x="570" y="640" as="targetPoint"/>
                    </mxGeometry>
                </mxCell>
                <mxCell id="19" value="" style="edgeStyle=orthogonalEdgeStyle;html=1;endArrow=block;elbow=vertical;startArrow=none;endFill=1;strokeColor=#545B64;rounded=0;fontSize=20;exitX=0.5;exitY=0;exitDx=0;exitDy=0;exitPerimeter=0;strokeWidth=2;" edge="1" parent="1" source="9" target="31">
                    <mxGeometry width="100" relative="1" as="geometry">
                        <mxPoint x="490" y="580" as="sourcePoint"/>
                        <mxPoint x="590" y="580" as="targetPoint"/>
                    </mxGeometry>
                </mxCell>
                <mxCell id="20" value="" style="edgeStyle=orthogonalEdgeStyle;html=1;endArrow=block;elbow=vertical;startArrow=none;endFill=1;strokeColor=#545B64;rounded=0;fontSize=20;strokeWidth=2;entryX=1;entryY=0.5;entryDx=0;entryDy=0;" edge="1" parent="1" source="10" target="8">
                    <mxGeometry width="100" relative="1" as="geometry">
                        <mxPoint x="917.5" y="694" as="sourcePoint"/>
                        <mxPoint x="917.5" y="608" as="targetPoint"/>
                    </mxGeometry>
                </mxCell>
                <mxCell id="21" value="" style="edgeStyle=orthogonalEdgeStyle;html=1;endArrow=block;elbow=vertical;startArrow=none;endFill=1;strokeColor=#545B64;rounded=0;fontSize=20;exitX=0;exitY=0.5;exitDx=0;exitDy=0;strokeWidth=2;entryX=1;entryY=0.5;entryDx=0;entryDy=0;" edge="1" parent="1" source="8" target="13">
                    <mxGeometry width="100" relative="1" as="geometry">
                        <mxPoint x="927.5" y="704" as="sourcePoint"/>
                        <mxPoint x="927.5" y="618" as="targetPoint"/>
                    </mxGeometry>
                </mxCell>
                <mxCell id="22" value="" style="edgeStyle=orthogonalEdgeStyle;html=1;endArrow=block;elbow=vertical;startArrow=none;endFill=1;strokeColor=#545B64;rounded=0;fontSize=20;exitX=0;exitY=0.5;exitDx=0;exitDy=0;strokeWidth=2;entryX=1;entryY=0.5;entryDx=0;entryDy=0;" edge="1" parent="1" source="13" target="11">
                    <mxGeometry width="100" relative="1" as="geometry">
                        <mxPoint x="937.5" y="714" as="sourcePoint"/>
                        <mxPoint x="540" y="558" as="targetPoint"/>
                    </mxGeometry>
                </mxCell>
                <mxCell id="23" value="" style="shape=image;verticalLabelPosition=bottom;labelBackgroundColor=#ffffff;verticalAlign=top;aspect=fixed;imageAspect=0;image=data:image/jpeg,/9j/4AAQSkZJRgABAQAAAQABAAD/2wCEAAkGBw0TDQ0NDRAQEBANEBAODQ0PEBMQEA0QGRYXGBYSFBYZHikhGRsqHBYWIjIiJiosLzEvGCA1OjUuRSkuLywBCgoKDg0OHBAQHDEmICQsLi45LiwuLiwuLCwsLiwuLiwsLCwuLjEuLi4uLi4sLiwwLjAsLi4sMDAuLCwsLi4uLv/AABEIAOEA4QMBIgACEQEDEQH/xAAcAAEAAgMBAQEAAAAAAAAAAAAAAQYEBQcCAwj/xABHEAACAQEDBQgOCAYDAQAAAAAAAQIDBAUREiExQVEGB1JhcZGT0RMUFRciMjNTcoGSobHhFiM0c6KywdIkNUJigvB0s/HC/8QAGwEAAgMBAQEAAAAAAAAAAAAAAAEDBAUCBgf/xAA4EQACAQIBCAgEBgIDAAAAAAAAAQIDBBEFEhMhMVGRoTJBUmFxgdHwFBWxwSIjM2Ki4VOCNHLS/9oADAMBAAIRAxEAPwDuIAAAAAAAAAABr75vKlZ6E7RVfgxzKK8acnohFbX89Q0m3ghNpLFmXWqwhFznKMYxWMpSajGK2tvQVS9d39jptxoKVoktcfAp4+k875UmihX9f9ptU8qtLCCeNOjFvsdPZ6Uv7n7tBqjQp2SWufAz6l48cIFrtu7+3zxVLsVFasmGXJeueKfMai0bpLxl49qrf4TdP3RwNUQWo0oR2JcCs6s3tb4+hk1LfXl41apL0qk38WfCUm9Lb5XiQQdpYHOL6yVNrQ2uR4H3p2+0R8WtVj6NWcfgzFJFqBN9RtbPunvKHiWut/m+y/mxN1Yd8S3QwVaFKsteZ05v/KOb8JUDyRypQltS9+BJGrNbG/fidbujd7YKrUarlZ5vzuHY2+KosyXpYFqjJNJppprFNZ01tR+ejebm909pskkot1KDfh0JPweNwf8AQ/c9aKtS0W2HD378C1Tu3snxO1gwbqvKjaKELRQllQntzSi9cZLU0ZxQaw1MvJ4gAAAAAAAAAAAAAAAAAAAAAAAOX75tucrXSs2PgUaanhtqTxxx/wAVHnZ1A5HvjfzOp93S+Bas1+b5Mq3j/L80Vkv+5HcXRlRharanN1Up0qOLjGMHnUp4Z23pw0YPPxc+nofIzvlkqwnSpTp4OE4QlBrRktJrD1Fm8qShFKPWVrSnGUm31YGotu5C7qkHHsEab1To/Vyi9ubM/Wmcs3QXRUstplZ5vKWCnTqJYKpTeOEsNTzNNbUdyOZ761WDtFkgsMuNKcp7cmUlk/lkQWlWefmt4onuqUczOWplHPIJNEzgAeQGACBDBAAhlt3t74lStqs8n9Va/Ba1RqpeBL14ZPHjHYdcOA3NJq12VrSq9JrlVSOB34z7uKU095oWj/A13gAFQtAAAAAAAAAAAAAAAAAAAAA5Hvj/AMyn6FL4HXDkm+R/M5fd0vgy1Z/qeTKt5+n5oqxaty27OpZoKhVg61BN5GDwqUsc7Ucc0lxPDTp1FWINKcIzWEjOhOUHjE6RbN8mjkPtehVlPV2bIhBcfgyk3yZuU59eFuq1q069aWVOo8ZPQlsSWpJZjGJOKdKFPoo7qVZ1OkwAeSQjABAhggAQwQAAGXdP2qzffUvzxO/nALp+1Wb76l+eJ38oXm1F+06L8QACmWwAAAAAAAAAAAAAA0l+bpbJZc1WeVUwxVGnhKbW16orlaKbbd8a1Sf8PRpU47amVVly5slLmZNToVJrFLUQzr04am9Z00HIvp5efnKfRRH09vPh0+iiSfB1O7iRfGU+/gddNBe+5Ox2is69ZVMtxjF5M8lYLRmKD9Pbz4dPooj6e3nw6fRROo2taLxT5hK6oyWDXIuPe+u3ZW6V9Q73127K3SvqKb9Prz4dPookfT68+HT6KJ3orjtczjS2/Z5Fz73t27K3SvqHe9u3ZW6V9RTPp7efnKfRRH0+vTh0+iiGiuO1zDS2/Z5Fz73t27K3SvqI73t27K3SvqKZ9Pb085T6KI+n16cOn0URaK47XMNLb9nkaS+rNCla7TRhjkUq1SnDF4vJUmlizBPta7ROrVqVqmDnVnKpNpYJybxeCPiXFjhrKjwx1AgAYgAQIZl3R9rs331L88T9AH5/uj7VZvvqX54nebS2oTazNReD2GffSzcHuTL9ksU13n3BXe2avDn7THbNThz9pnmvnlPsPijV+Ee8sQK4rVUWicufEyqF6SWaosr+7R/6S0ss0JPCSce/auXocytZLZrNyDxTqKSUovFPWezVTTWKKwAAwBT9226ntZdr2drtiaxlPM1Qi9Dw1yepet6sbBfl5Rs9lrWmWfscfBjw5vNGPrbRxG0151Kk6tSWVOpJznJ65P8ATiLdrRU3nS2LmypdVnBZsdr5HipOUpOUm5Sk25Sk25Sb0tt6WeQQaZmgkEAAPIJEAAPIDABAhggAQwQAAAAgQwAAAyrp+1WX76j+eJ3u1eTn6LOB3R9qs331L88Tvlq8nP0WZuUOj5P7mhY/dFeIAPm6PRgA8jGZNhtbpy/tfjLqN9FppNZ09D2lYNvc9fGLpvTDOuRm5ke7aloJbHs7nta8GsX4+JTuqWrPRswAejKBzzfTvDPZrIntr1Fzxh/9+45+b7dxacu87U8cVTcaUeJRik17WUaA2aEc2ml71mPXlnVG/LgCQQSkQPIJEAAPIDABAhggAQwQAAAAgQwAAAEAgQzYbnqLnbrFBZ8bRRx5FOLb5kzu1r8nP0Wcr3r7qdS2O1SXgWSLwep1ZpxS48IuT4sYnTrznhRkuE0l8TJynUUYSe6L+jNKxg9XezSAHk+enoQAQAAyLvq5NaGxvB+vN8THIxwzrSs6OqdR0pqoup48BSjnJreWwGN27AHu9NR7SMjRz3HEL4qZVqtU+HWqy55yZiCpLGUntbfOyDfWwwG8W2DyCQEADyAwAQIYIMixWGvWnkWelOrLWoRcsnjk9CXGyw2bcBek1jKFKlxVaqx/ApHEpxj0ngdxhKXRWJViC597a8PO2XpKv7B3tbw87Zfbq/sONNT3kmgqbimAufe1vDztl9ur+wjva3h52y9JV/YGmp7w0NTcUwFz72t4edsvSVf2DvaXh52y9JV/YLT0949BU3FMILp3tLw87Zekq/sPpQ3srY39ZXs8Fth2Sp7moidenvDQVNxRjZXBcVotdXsdCPgprstaS+rpLjet7IrO/euh3ZvbWODUrRUqWhr+nyVN+qLyvxFystmp04KnShGnCOaMIRUYrkSIZ3S2QJYWr2yMO47qo2azws9FeDDPKT8apN6Zy438tRjXtXxmoLRDTy6/95TKt1vUU4QeMtDa0RNOeRyvfqS0MHjvf247fDDfht2tDD8T8iACDALwAAhggHkBk4sEAMQwOVTWDa2No8GXetPJtNohwKtSPNNr9DEPrieKxPDNa2iQDyMAAQIYLXuM3Iu1fX2jKhZovBJZpWhrSovVHU36ltWjuK7JWm10bNHFKpLw5L+ims8pcuCeHHgdzs9CFOnCnTioQpxUYRWiMUsEirc1nBZsdrLVvRU3nPYjxYrHSpU40qEI04R0Qgkly8b4xWtdOOaTz7NZg2u2uTcYPCO3hfIwzyN3lhKTjRWPe9nkuvx2bsTbp22r8XA2M7zWqHvPPdV8Be18jAIMx5Uu2+nyj6E6oU9xsO6r4C9r5Duq+Ava+RriBfM7vt8o+g9BT3Gy7rPgL2vkR3WfAXtfI1xAfM7vt8o+g/h6e42XdZ8Be18h3XfAXtfI1pAvmd32+UfQPh6e42Er3lqilyvExq1sqSzOWbZoR8DyR1L24qLCc3hw+mo7jRhHYgAQVCUAABggHkBgACGARgwAFB3Z2fsd52yOGmp2RceWlNvnkzTl331LDk2mhaUs1am6ctmVB45+Nqf4SjH1mjLGmn3Hia0c2o13gAgkOAQAIZf96axp1bXaGvEhCjB+k3KX5Yc5fLyrYQUVpl8Crb1C/gq71u0SXNCHWWC9JfWJbEeby3WlCnNruj78sTasYLCK8zDAIPFGuCAQMYAIEMAECAAHkBgAgBgACGCAAGDyAIYISbzLS8y5STJuqjlVoPVHw36tHvJKVN1ZqC63hx6xSlmpy3G77RgDKB7vQ0OyjF0k95X92t0u0WGrCCxqUsK1Fa3OOOKXG4uS5Wji+J+iDk2+BubdGtK10Y/UV5YzS0UKr0p7It6ON4bC/aVcPwMz7ulj+NFQIALxSBAAAdU3qPsNf/ky/wCumb29PKPkRot6f7BX/wCVL/rpm9vTyj5EeUy/+k/+y+jN6w6vAxTyCDyRqAAgQwAQIAAeQGACAGAAIYIAAYPIAhgA8gMG+uezZNPLempn5I6v95DBuy73Jqc14C0LhvqLAegyPZPHTzXh59fDUvFlC7rLoLz9AAD0Jng+ValCcJQqRUoTTjKEknGSelNPSj6gAOabod7yonKrd7UovP2tOWEo8UJvM1xSw5WUu2XZaaTarUKtPDh05JPkeGD9R38FqF3NLB6yrO1i9a1H53yJbHzMjIlsfMz9Eg7+M/bz/o4+D/dy/spO9QmrDXxTX8TLT93TN5evlHyI3Rpb18q+RHn8uSzqDlvkvozTs45sku4wwCDyppgAg5AAECZ0j7qxVmk1B4POs66z12hW4HvXWbKlbqKjFOedJJ+DLZyHrujQ4f4ZdRvKwsOut/KHoUtNW7PJmp7QrcB866yO0K/A966zb90aHD/DLqHdGhw/wy6g+X5P/wA38oeg9NX7HJmo7Qr8D3rrHaFfge9dZt+6VDh/hl1Ed0qHD/DLqD5fk/8Azfyh6Bp6/Y5M1Hc+vwPeusdz6/A966zcRvGg2kp528Fml1GYS08k2lToVG/Bxf0RzK6qx2xw8UVrufX83711kdz6/m/eusswJPkdDtS/j/5F8bPciuU7rrv+lR43JfpiZ9luiEc83lvZoRtAT0clW1J44OT/AHa+SSXIjndVJatngAAaRXAAAAAAAAAAAAAAaS9fKvkRuzSXt5R8iMrLP/G/2X0ZYtun5GGAQeVNEAABkEAgBgACGCAZ9nuqckpTeR/bhi/XsJqFvVryzaax973q96sTmc4wWMmYB5NhabqnFOUHlpaVhg/VtNeFe3qUJZtRYe+pr3vCE4zWMWe6Hjw9OJayqUPHh6UfiWs3chdCfivuU73bHzAAN0ogAAAAAAAAAAAAAAAAAAAA0l7eVfIjdmrvelmjUWrNLk1MzcrQc7Z4dTT8uvhjj4IntpYVDVgA8kaYPIIAYAAhggAAPvd0U61NPRp5k2iylTpzcZKUdMWsDf2e30ppeEovXFvB48W09BkW4pxjKm3hLHHX1rBfTB8SjeQk2pLYZpWLwglWqJaMcefP+pubTeFOCzNSlqinjn/Qr9SblJyemTePKLLVxTlGNOLxaeOrqWH3+w7OEk3J7CaHjw9NFtKrYqblVhFbcX6s7LUSZCT0c33pcF/Yr160gADdKIAAAAAAAAAAAAAAAAAAAAPE4ppprFPStp7AmsQNFbrDKGMo54bdcf8AdphlpMGvdtOWdeC9q6jAu8jPHOoP/V/Z/Z7N/UXaV11T4miBnVbrqrxfCXE8PczFnZai0wkudrnMepaV6fTg15auKxRbjUhLYz5kBkYlbOW8lwJPIxIxE5LePAkExhJ+Kvcz7wsFeWiGHLm+JLCjUqdCLfgsfpicuajteBikwg21GKbb0JaWbWhcr/rn6odb6jZWezU4LCEUtutvlZpW+R603+Z+FcXw2cda3Fepdwj0dZj3bYexrKlnnJZ+LiRsAD01GjCjBQgsEjNnNzecwACU5AAAAAAAAAAAAAAAAAAAAAAAAAAAAA6htBnmpoNbWIBUv+onoHzRnWUgFWz6RLV2GYADZq7SkgACEYAAAAAAAAAAAAAAAAH/2Q==;" vertex="1" parent="1">
                    <mxGeometry x="470" y="590" width="35" height="35" as="geometry"/>
                </mxCell>
                <mxCell id="24" value="" style="shape=image;verticalLabelPosition=bottom;labelBackgroundColor=#ffffff;verticalAlign=top;aspect=fixed;imageAspect=0;image=data:image/jpeg,/9j/4AAQSkZJRgABAQAAAQABAAD/2wCEAAkGBw0TDQ0NDRAQEBANEBAODQ0PEBMQEA0QGRYXGBYSFBYZHikhGRsqHBYWIjIiJiosLzEvGCA1OjUuRSkuLywBCgoKDg0OHBAQHDEmICQsLi45LiwuLiwuLCwsLiwuLiwsLCwuLjEuLi4uLi4sLiwwLjAsLi4sMDAuLCwsLi4uLv/AABEIAOEA4QMBIgACEQEDEQH/xAAcAAEAAgMBAQEAAAAAAAAAAAAAAQYEBQcCAwj/xABHEAACAQEDBQgOCAYDAQAAAAAAAQIDBAUREiExQVEGB1JhcZGT0RMUFRciMjNTcoGSobHhFiM0c6KywdIkNUJigvB0s/HC/8QAGwEAAgMBAQEAAAAAAAAAAAAAAAEDBAUCBgf/xAA4EQACAQIBCAgEBgIDAAAAAAAAAQIDBBEFEhMhMVGRoTJBUmFxgdHwFBWxwSIjM2Ki4VOCNHLS/9oADAMBAAIRAxEAPwDuIAAAAAAAAAABr75vKlZ6E7RVfgxzKK8acnohFbX89Q0m3ghNpLFmXWqwhFznKMYxWMpSajGK2tvQVS9d39jptxoKVoktcfAp4+k875UmihX9f9ptU8qtLCCeNOjFvsdPZ6Uv7n7tBqjQp2SWufAz6l48cIFrtu7+3zxVLsVFasmGXJeueKfMai0bpLxl49qrf4TdP3RwNUQWo0oR2JcCs6s3tb4+hk1LfXl41apL0qk38WfCUm9Lb5XiQQdpYHOL6yVNrQ2uR4H3p2+0R8WtVj6NWcfgzFJFqBN9RtbPunvKHiWut/m+y/mxN1Yd8S3QwVaFKsteZ05v/KOb8JUDyRypQltS9+BJGrNbG/fidbujd7YKrUarlZ5vzuHY2+KosyXpYFqjJNJppprFNZ01tR+ejebm909pskkot1KDfh0JPweNwf8AQ/c9aKtS0W2HD378C1Tu3snxO1gwbqvKjaKELRQllQntzSi9cZLU0ZxQaw1MvJ4gAAAAAAAAAAAAAAAAAAAAAAAOX75tucrXSs2PgUaanhtqTxxx/wAVHnZ1A5HvjfzOp93S+Bas1+b5Mq3j/L80Vkv+5HcXRlRharanN1Up0qOLjGMHnUp4Z23pw0YPPxc+nofIzvlkqwnSpTp4OE4QlBrRktJrD1Fm8qShFKPWVrSnGUm31YGotu5C7qkHHsEab1To/Vyi9ubM/Wmcs3QXRUstplZ5vKWCnTqJYKpTeOEsNTzNNbUdyOZ761WDtFkgsMuNKcp7cmUlk/lkQWlWefmt4onuqUczOWplHPIJNEzgAeQGACBDBAAhlt3t74lStqs8n9Va/Ba1RqpeBL14ZPHjHYdcOA3NJq12VrSq9JrlVSOB34z7uKU095oWj/A13gAFQtAAAAAAAAAAAAAAAAAAAAA5Hvj/AMyn6FL4HXDkm+R/M5fd0vgy1Z/qeTKt5+n5oqxaty27OpZoKhVg61BN5GDwqUsc7Ucc0lxPDTp1FWINKcIzWEjOhOUHjE6RbN8mjkPtehVlPV2bIhBcfgyk3yZuU59eFuq1q069aWVOo8ZPQlsSWpJZjGJOKdKFPoo7qVZ1OkwAeSQjABAhggAQwQAAGXdP2qzffUvzxO/nALp+1Wb76l+eJ38oXm1F+06L8QACmWwAAAAAAAAAAAAAA0l+bpbJZc1WeVUwxVGnhKbW16orlaKbbd8a1Sf8PRpU47amVVly5slLmZNToVJrFLUQzr04am9Z00HIvp5efnKfRRH09vPh0+iiSfB1O7iRfGU+/gddNBe+5Ox2is69ZVMtxjF5M8lYLRmKD9Pbz4dPooj6e3nw6fRROo2taLxT5hK6oyWDXIuPe+u3ZW6V9Q73127K3SvqKb9Prz4dPookfT68+HT6KJ3orjtczjS2/Z5Fz73t27K3SvqHe9u3ZW6V9RTPp7efnKfRRH0+vTh0+iiGiuO1zDS2/Z5Fz73t27K3SvqI73t27K3SvqKZ9Pb085T6KI+n16cOn0URaK47XMNLb9nkaS+rNCla7TRhjkUq1SnDF4vJUmlizBPta7ROrVqVqmDnVnKpNpYJybxeCPiXFjhrKjwx1AgAYgAQIZl3R9rs331L88T9AH5/uj7VZvvqX54nebS2oTazNReD2GffSzcHuTL9ksU13n3BXe2avDn7THbNThz9pnmvnlPsPijV+Ee8sQK4rVUWicufEyqF6SWaosr+7R/6S0ss0JPCSce/auXocytZLZrNyDxTqKSUovFPWezVTTWKKwAAwBT9226ntZdr2drtiaxlPM1Qi9Dw1yepet6sbBfl5Rs9lrWmWfscfBjw5vNGPrbRxG0151Kk6tSWVOpJznJ65P8ATiLdrRU3nS2LmypdVnBZsdr5HipOUpOUm5Sk25Sk25Sb0tt6WeQQaZmgkEAAPIJEAAPIDABAhggAQwQAAAAgQwAAAyrp+1WX76j+eJ3u1eTn6LOB3R9qs331L88Tvlq8nP0WZuUOj5P7mhY/dFeIAPm6PRgA8jGZNhtbpy/tfjLqN9FppNZ09D2lYNvc9fGLpvTDOuRm5ke7aloJbHs7nta8GsX4+JTuqWrPRswAejKBzzfTvDPZrIntr1Fzxh/9+45+b7dxacu87U8cVTcaUeJRik17WUaA2aEc2ml71mPXlnVG/LgCQQSkQPIJEAAPIDABAhggAQwQAAAAgQwAAAEAgQzYbnqLnbrFBZ8bRRx5FOLb5kzu1r8nP0Wcr3r7qdS2O1SXgWSLwep1ZpxS48IuT4sYnTrznhRkuE0l8TJynUUYSe6L+jNKxg9XezSAHk+enoQAQAAyLvq5NaGxvB+vN8THIxwzrSs6OqdR0pqoup48BSjnJreWwGN27AHu9NR7SMjRz3HEL4qZVqtU+HWqy55yZiCpLGUntbfOyDfWwwG8W2DyCQEADyAwAQIYIMixWGvWnkWelOrLWoRcsnjk9CXGyw2bcBek1jKFKlxVaqx/ApHEpxj0ngdxhKXRWJViC597a8PO2XpKv7B3tbw87Zfbq/sONNT3kmgqbimAufe1vDztl9ur+wjva3h52y9JV/YGmp7w0NTcUwFz72t4edsvSVf2DvaXh52y9JV/YLT0949BU3FMILp3tLw87Zekq/sPpQ3srY39ZXs8Fth2Sp7moidenvDQVNxRjZXBcVotdXsdCPgprstaS+rpLjet7IrO/euh3ZvbWODUrRUqWhr+nyVN+qLyvxFystmp04KnShGnCOaMIRUYrkSIZ3S2QJYWr2yMO47qo2azws9FeDDPKT8apN6Zy438tRjXtXxmoLRDTy6/95TKt1vUU4QeMtDa0RNOeRyvfqS0MHjvf247fDDfht2tDD8T8iACDALwAAhggHkBk4sEAMQwOVTWDa2No8GXetPJtNohwKtSPNNr9DEPrieKxPDNa2iQDyMAAQIYLXuM3Iu1fX2jKhZovBJZpWhrSovVHU36ltWjuK7JWm10bNHFKpLw5L+ims8pcuCeHHgdzs9CFOnCnTioQpxUYRWiMUsEirc1nBZsdrLVvRU3nPYjxYrHSpU40qEI04R0Qgkly8b4xWtdOOaTz7NZg2u2uTcYPCO3hfIwzyN3lhKTjRWPe9nkuvx2bsTbp22r8XA2M7zWqHvPPdV8Be18jAIMx5Uu2+nyj6E6oU9xsO6r4C9r5Duq+Ava+RriBfM7vt8o+g9BT3Gy7rPgL2vkR3WfAXtfI1xAfM7vt8o+g/h6e42XdZ8Be18h3XfAXtfI1pAvmd32+UfQPh6e42Er3lqilyvExq1sqSzOWbZoR8DyR1L24qLCc3hw+mo7jRhHYgAQVCUAABggHkBgACGARgwAFB3Z2fsd52yOGmp2RceWlNvnkzTl331LDk2mhaUs1am6ctmVB45+Nqf4SjH1mjLGmn3Hia0c2o13gAgkOAQAIZf96axp1bXaGvEhCjB+k3KX5Yc5fLyrYQUVpl8Crb1C/gq71u0SXNCHWWC9JfWJbEeby3WlCnNruj78sTasYLCK8zDAIPFGuCAQMYAIEMAECAAHkBgAgBgACGCAAGDyAIYISbzLS8y5STJuqjlVoPVHw36tHvJKVN1ZqC63hx6xSlmpy3G77RgDKB7vQ0OyjF0k95X92t0u0WGrCCxqUsK1Fa3OOOKXG4uS5Wji+J+iDk2+BubdGtK10Y/UV5YzS0UKr0p7It6ON4bC/aVcPwMz7ulj+NFQIALxSBAAAdU3qPsNf/ky/wCumb29PKPkRot6f7BX/wCVL/rpm9vTyj5EeUy/+k/+y+jN6w6vAxTyCDyRqAAgQwAQIAAeQGACAGAAIYIAAYPIAhgA8gMG+uezZNPLempn5I6v95DBuy73Jqc14C0LhvqLAegyPZPHTzXh59fDUvFlC7rLoLz9AAD0Jng+ValCcJQqRUoTTjKEknGSelNPSj6gAOabod7yonKrd7UovP2tOWEo8UJvM1xSw5WUu2XZaaTarUKtPDh05JPkeGD9R38FqF3NLB6yrO1i9a1H53yJbHzMjIlsfMz9Eg7+M/bz/o4+D/dy/spO9QmrDXxTX8TLT93TN5evlHyI3Rpb18q+RHn8uSzqDlvkvozTs45sku4wwCDyppgAg5AAECZ0j7qxVmk1B4POs66z12hW4HvXWbKlbqKjFOedJJ+DLZyHrujQ4f4ZdRvKwsOut/KHoUtNW7PJmp7QrcB866yO0K/A966zb90aHD/DLqHdGhw/wy6g+X5P/wA38oeg9NX7HJmo7Qr8D3rrHaFfge9dZt+6VDh/hl1Ed0qHD/DLqD5fk/8Azfyh6Bp6/Y5M1Hc+vwPeusdz6/A966zcRvGg2kp528Fml1GYS08k2lToVG/Bxf0RzK6qx2xw8UVrufX83711kdz6/m/eusswJPkdDtS/j/5F8bPciuU7rrv+lR43JfpiZ9luiEc83lvZoRtAT0clW1J44OT/AHa+SSXIjndVJatngAAaRXAAAAAAAAAAAAAAaS9fKvkRuzSXt5R8iMrLP/G/2X0ZYtun5GGAQeVNEAABkEAgBgACGCAZ9nuqckpTeR/bhi/XsJqFvVryzaax973q96sTmc4wWMmYB5NhabqnFOUHlpaVhg/VtNeFe3qUJZtRYe+pr3vCE4zWMWe6Hjw9OJayqUPHh6UfiWs3chdCfivuU73bHzAAN0ogAAAAAAAAAAAAAAAAAAAA0l7eVfIjdmrvelmjUWrNLk1MzcrQc7Z4dTT8uvhjj4IntpYVDVgA8kaYPIIAYAAhggAAPvd0U61NPRp5k2iylTpzcZKUdMWsDf2e30ppeEovXFvB48W09BkW4pxjKm3hLHHX1rBfTB8SjeQk2pLYZpWLwglWqJaMcefP+pubTeFOCzNSlqinjn/Qr9SblJyemTePKLLVxTlGNOLxaeOrqWH3+w7OEk3J7CaHjw9NFtKrYqblVhFbcX6s7LUSZCT0c33pcF/Yr160gADdKIAAAAAAAAAAAAAAAAAAAAPE4ppprFPStp7AmsQNFbrDKGMo54bdcf8AdphlpMGvdtOWdeC9q6jAu8jPHOoP/V/Z/Z7N/UXaV11T4miBnVbrqrxfCXE8PczFnZai0wkudrnMepaV6fTg15auKxRbjUhLYz5kBkYlbOW8lwJPIxIxE5LePAkExhJ+Kvcz7wsFeWiGHLm+JLCjUqdCLfgsfpicuajteBikwg21GKbb0JaWbWhcr/rn6odb6jZWezU4LCEUtutvlZpW+R603+Z+FcXw2cda3Fepdwj0dZj3bYexrKlnnJZ+LiRsAD01GjCjBQgsEjNnNzecwACU5AAAAAAAAAAAAAAAAAAAAAAAAAAAAA6htBnmpoNbWIBUv+onoHzRnWUgFWz6RLV2GYADZq7SkgACEYAAAAAAAAAAAAAAAAH/2Q==;" vertex="1" parent="1">
                    <mxGeometry x="670" y="590" width="35" height="35" as="geometry"/>
                </mxCell>
                <mxCell id="25" value="&lt;font style=&quot;font-size: 12px&quot;&gt;API Gateway&lt;/font&gt;" style="text;html=1;align=center;verticalAlign=middle;resizable=0;points=[];autosize=1;strokeColor=none;fillColor=none;fontSize=20;" vertex="1" parent="1">
                    <mxGeometry x="234" y="590" width="90" height="30" as="geometry"/>
                </mxCell>
                <mxCell id="26" value="&lt;font style=&quot;font-size: 12px&quot;&gt;Lambda&lt;/font&gt;" style="text;html=1;align=center;verticalAlign=middle;resizable=0;points=[];autosize=1;strokeColor=none;fillColor=none;fontSize=14;" vertex="1" parent="1">
                    <mxGeometry x="408" y="594.5" width="60" height="20" as="geometry"/>
                </mxCell>
                <mxCell id="27" value="DynamoDB" style="text;html=1;align=center;verticalAlign=middle;resizable=0;points=[];autosize=1;strokeColor=none;fillColor=none;fontSize=12;" vertex="1" parent="1">
                    <mxGeometry x="398" y="758" width="80" height="20" as="geometry"/>
                </mxCell>
                <mxCell id="28" value="CDK" style="text;html=1;align=center;verticalAlign=middle;resizable=0;points=[];autosize=1;strokeColor=none;fillColor=none;fontSize=12;" vertex="1" parent="1">
                    <mxGeometry x="618.5" y="600" width="40" height="20" as="geometry"/>
                </mxCell>
                <mxCell id="29" value="GitHub Actions" style="text;html=1;align=center;verticalAlign=middle;resizable=0;points=[];autosize=1;strokeColor=none;fillColor=none;fontSize=12;" vertex="1" parent="1">
                    <mxGeometry x="720" y="600" width="90" height="20" as="geometry"/>
                </mxCell>
                <mxCell id="30" value="Developer" style="text;html=1;align=center;verticalAlign=middle;resizable=0;points=[];autosize=1;strokeColor=none;fillColor=none;fontSize=12;" vertex="1" parent="1">
                    <mxGeometry x="860" y="754" width="70" height="20" as="geometry"/>
                </mxCell>
                <mxCell id="31" value="GitHub Repository" style="text;html=1;align=center;verticalAlign=middle;resizable=0;points=[];autosize=1;strokeColor=none;fillColor=none;fontSize=12;" vertex="1" parent="1">
                    <mxGeometry x="852.5" y="600" width="110" height="20" as="geometry"/>
                </mxCell>
                <mxCell id="33" value="Client" style="text;html=1;align=center;verticalAlign=middle;resizable=0;points=[];autosize=1;strokeColor=none;fillColor=none;fontSize=12;" vertex="1" parent="1">
                    <mxGeometry x="55" y="595" width="50" height="20" as="geometry"/>
                </mxCell>
            </root>
        </mxGraphModel>
    </diagram>
</mxfile>